<svg xmlns="http://www.w3.org/2000/svg" width="129" height="46" viewBox="0 0 129 46">
    <g fill="none" fill-rule="evenodd">
        <path fill="#9608ED" d="M128.868 21.5c0 11.784-9.543 21.337-21.315 21.337-11.772 0-21.315-9.553-21.315-21.336 0-11.784 9.543-21.337 21.315-21.337 11.772 0 21.315 9.553 21.315 21.337"/>
        <path fill="#000" d="M99.412 14.927c-8.547 0-15.5 6.96-15.5 15.515s6.953 15.515 15.5 15.515c8.546 0 15.5-6.96 15.5-15.515s-6.954-15.515-15.5-15.515m0 2.328c7.275 0 13.173 5.904 13.173 13.187 0 7.283-5.898 13.186-13.173 13.186-7.276 0-13.174-5.903-13.174-13.186s5.898-13.187 13.174-13.187M27.045 22.177l2.043-6.605h2.429l-3.015 8.583h-2.997l-3.015-8.583h2.428l2.044 6.605zM32.974 19.864c0 .301.058.59.176.863a2.27 2.27 0 0 0 1.205 1.207c.274.117.561.176.863.176.301 0 .588-.059.862-.176a2.275 2.275 0 0 0 1.206-1.207c.117-.274.176-.562.176-.863 0-.302-.059-.59-.176-.864a2.283 2.283 0 0 0-1.206-1.207 2.17 2.17 0 0 0-.862-.176c-.302 0-.59.06-.863.176A2.277 2.277 0 0 0 33.15 19a2.17 2.17 0 0 0-.176.864m-2.127 0c0-.604.114-1.174.343-1.71.229-.537.539-1 .93-1.392.39-.39.854-.701 1.39-.93a4.3 4.3 0 0 1 1.708-.344c.603 0 1.172.115 1.708.344.536.229.999.54 1.39.93.39.392.7.855.93 1.392.228.536.343 1.106.343 1.71 0 .603-.115 1.173-.344 1.71-.229.536-.538 1-.93 1.39a4.363 4.363 0 0 1-1.389.931 4.296 4.296 0 0 1-1.708.344 4.295 4.295 0 0 1-1.708-.344c-.536-.229-1-.539-1.39-.93a4.364 4.364 0 0 1-.93-1.392 4.31 4.31 0 0 1-.343-1.71M42.05 19.864c0 .301.059.59.176.863a2.273 2.273 0 0 0 1.206 1.207c.273.117.56.176.862.176.302 0 .589-.059.863-.176a2.274 2.274 0 0 0 1.206-1.207c.117-.274.175-.562.175-.863 0-.302-.058-.59-.175-.864a2.281 2.281 0 0 0-1.206-1.207 2.17 2.17 0 0 0-.863-.176c-.301 0-.589.06-.862.176A2.276 2.276 0 0 0 42.226 19a2.172 2.172 0 0 0-.176.864m-2.127 0c0-.604.115-1.174.344-1.71.228-.537.538-1 .93-1.392.39-.39.853-.701 1.39-.93a4.3 4.3 0 0 1 1.707-.344c.603 0 1.173.115 1.709.344.535.229.999.54 1.39.93.39.392.7.855.929 1.392.229.536.343 1.106.343 1.71 0 .603-.114 1.173-.343 1.71-.23.536-.539 1-.93 1.39a4.364 4.364 0 0 1-1.39.931 4.296 4.296 0 0 1-1.708.344 4.294 4.294 0 0 1-1.708-.344c-.536-.229-1-.539-1.39-.93-.39-.391-.7-.855-.93-1.392a4.31 4.31 0 0 1-.343-1.71M51.763 24.155h-2.177v-8.583h1.876v1.107a4.09 4.09 0 0 1 1.197-.814c.441-.195.919-.293 1.432-.293h.586v1.961h-.586a2.345 2.345 0 0 0-1.65.679 2.34 2.34 0 0 0-.678 1.652v4.291zM56.57 19.864c0 .313.058.603.176.871a2.275 2.275 0 0 0 1.18 1.182c.268.117.558.176.871.176.312 0 .603-.059.87-.176a2.277 2.277 0 0 0 1.181-1.182c.118-.268.176-.558.176-.871 0-.313-.058-.604-.176-.872a2.275 2.275 0 0 0-1.18-1.182 2.148 2.148 0 0 0-.871-.176c-.313 0-.603.059-.87.176a2.275 2.275 0 0 0-1.181 1.182c-.118.268-.176.559-.176.872m-2.144 0c0-.593.109-1.151.327-1.677.217-.525.51-.98.879-1.366.368-.386.804-.69 1.306-.914a3.912 3.912 0 0 1 1.608-.335c.446 0 .862.078 1.248.235.385.156.739.369 1.063.637V11.28H63v12.874h-2.144v-.872c-.324.28-.678.495-1.063.646a3.39 3.39 0 0 1-1.248.226c-.57 0-1.105-.112-1.608-.335a4.079 4.079 0 0 1-1.306-.914 4.384 4.384 0 0 1-.88-1.366 4.332 4.332 0 0 1-.326-1.676M66.199 21.573c0 .302.134.531.402.688.268.156.597.234.988.234.223 0 .458-.03.703-.092a2.11 2.11 0 0 0 .687-.31c.212-.145.388-.33.527-.553.14-.223.21-.492.21-.805h-2.412c-.268 0-.519.056-.753.168-.235.112-.352.335-.352.67zm3.517 1.51a2.4 2.4 0 0 1-1.114.896 3.697 3.697 0 0 1-1.415.293 4.2 4.2 0 0 1-1.28-.184 3.076 3.076 0 0 1-1.006-.528 2.403 2.403 0 0 1-.661-.821 2.42 2.42 0 0 1-.235-1.082c0-.838.282-1.497.846-1.978.564-.48 1.359-.72 2.386-.72h2.479v-.403c0-.369-.145-.679-.436-.93-.29-.252-.68-.378-1.172-.378-.39 0-.715.082-.971.243-.257.163-.497.406-.72.73l-1.608-1.14c.123-.235.293-.458.51-.67.219-.213.47-.4.754-.562a4.115 4.115 0 0 1 2.019-.528c.569 0 1.082.086 1.54.26a3.55 3.55 0 0 1 1.18.72c.33.308.581.674.754 1.098.173.425.26.889.26 1.392v5.364h-2.11v-1.073zM73.97 24.155V17.55h-1.977v-1.978h1.976v-2.146h2.144v2.146h1.976v1.978h-1.976v6.605zM8.574 30.4v4.291H6.431V30.4c0-.302-.056-.581-.168-.838a2.19 2.19 0 0 0-1.139-1.14 2.075 2.075 0 0 0-.837-.168c-.29 0-.56.053-.812.16a2.235 2.235 0 0 0-.67.435 2.12 2.12 0 0 0-.661 1.467v4.375H0V21.817h2.144v5.33a3.843 3.843 0 0 1 1.13-.762 3.306 3.306 0 0 1 1.348-.277c.547 0 1.06.112 1.54.336.48.223.9.528 1.257.913.357.386.639.841.845 1.366.207.526.31 1.085.31 1.677M13.414 27.768c-.636 0-1.128.17-1.474.511-.346.341-.547.74-.603 1.199h4.187a2.08 2.08 0 0 0-.21-.629 1.833 1.833 0 0 0-.426-.545 2.198 2.198 0 0 0-1.474-.536m4.338 2.632c0 .145-.015.293-.042.444-.028.15-.06.271-.092.36h-6.28c.022.246.097.47.226.671.128.201.29.375.485.52.195.145.416.257.662.335.245.078.496.117.753.117.402 0 .785-.08 1.147-.243.363-.162.667-.383.913-.662l1.574 1.24a4.396 4.396 0 0 1-1.59 1.208 4.899 4.899 0 0 1-2.06.435c-.492 0-.994-.08-1.508-.243a3.974 3.974 0 0 1-1.398-.78 4.11 4.11 0 0 1-1.03-1.374c-.268-.558-.402-1.234-.402-2.028 0-.637.103-1.224.31-1.76a4.23 4.23 0 0 1 .87-1.4 3.863 3.863 0 0 1 1.349-.922 4.499 4.499 0 0 1 1.742-.327c.636 0 1.22.109 1.75.327.53.218.99.52 1.381.905.39.386.695.85.913 1.391.218.543.327 1.138.327 1.786M19.392 34.691v-6.604h-1.976v-1.979h1.976v-2.145h2.144v2.145h1.976v1.979h-1.976v6.604zM34.598 30.4v4.291h-2.143V30.4c0-.302-.056-.581-.168-.838a2.186 2.186 0 0 0-1.139-1.14 2.076 2.076 0 0 0-.837-.168c-.29 0-.56.053-.812.16a2.235 2.235 0 0 0-.67.435 2.12 2.12 0 0 0-.662 1.467v4.375h-2.143v-8.583h2.143v1.04a3.844 3.844 0 0 1 1.131-.763 3.306 3.306 0 0 1 1.348-.277c.547 0 1.06.112 1.541.336a4 4 0 0 1 1.256.913c.357.386.639.841.845 1.366.207.526.31 1.085.31 1.677M35.888 34.691h2.177v-8.583h-2.177zM43.524 27.768c-.636 0-1.128.17-1.473.511a1.98 1.98 0 0 0-.603 1.199h4.186a2.09 2.09 0 0 0-.209-.629 1.839 1.839 0 0 0-.427-.545 2.196 2.196 0 0 0-1.474-.536m4.338 2.632c0 .145-.014.293-.042.444-.028.15-.059.271-.092.36h-6.28c.022.246.097.47.226.671.128.201.29.375.485.52.196.145.416.257.662.335.245.078.497.117.754.117.401 0 .784-.08 1.147-.243.362-.162.667-.383.912-.662l1.575 1.24a4.396 4.396 0 0 1-1.591 1.208 4.9 4.9 0 0 1-2.06.435 5 5 0 0 1-1.507-.243 3.974 3.974 0 0 1-1.399-.78 4.11 4.11 0 0 1-1.03-1.374c-.268-.558-.402-1.234-.402-2.028 0-.637.103-1.224.31-1.76a4.228 4.228 0 0 1 .871-1.4 3.862 3.862 0 0 1 1.348-.922 4.5 4.5 0 0 1 1.742-.327c.636 0 1.22.109 1.75.327.53.218.99.52 1.381.905.391.386.695.85.913 1.391.218.543.327 1.138.327 1.786M48.197 26.108h2.227v4.376c0 .301.05.58.15.838.101.257.243.483.428.679a2.003 2.003 0 0 0 1.482.628 2.125 2.125 0 0 0 1.95-1.248c.118-.252.182-.523.193-.813v-4.46h2.21v8.583h-2.21v-1.039a3.838 3.838 0 0 1-1.13.763 3.31 3.31 0 0 1-1.348.276 3.6 3.6 0 0 1-1.541-.335 3.992 3.992 0 0 1-1.256-.913 4.297 4.297 0 0 1-.846-1.367 4.532 4.532 0 0 1-.31-1.676v-4.292zM66.517 32.713h.1l1.24-6.605h2.311l-1.876 8.583h-3.215l-1.139-4.962h-.167l-1.14 4.962h-3.215l-1.875-8.583h2.311l1.24 6.605h.1l1.524-6.605h2.277zM72.261 28.506c0 .156.059.279.176.368.117.09.277.174.477.252.268.1.592.19.972.268.379.078.764.179 1.155.302.704.223 1.267.553 1.692.989.424.436.636.983.636 1.643 0 .793-.293 1.427-.879 1.902-.586.475-1.471.713-2.654.713a4.879 4.879 0 0 1-2.454-.637c-.33-.19-.611-.41-.846-.662a2.636 2.636 0 0 1-.519-.78l1.775-.838c.09.167.21.318.36.453.151.134.319.251.503.352.184.1.374.175.57.226.194.05.382.075.56.075.558 0 .946-.084 1.164-.251.218-.168.327-.352.327-.553a.545.545 0 0 0-.193-.445c-.128-.106-.343-.198-.644-.276a27.3 27.3 0 0 1-1.324-.352 13.48 13.48 0 0 1-1.44-.503 3.27 3.27 0 0 1-1.105-.771c-.302-.324-.452-.766-.452-1.325 0-.503.1-.93.301-1.282.201-.352.466-.64.796-.863.329-.224.706-.386 1.13-.486.424-.101.86-.151 1.306-.151.424 0 .846.058 1.265.176.418.117.795.293 1.13.528.335.234.606.53.812.888.207.358.31.771.31 1.24h-2.144a.857.857 0 0 0-.133-.485.968.968 0 0 0-.352-.319 1.675 1.675 0 0 0-.477-.167 2.603 2.603 0 0 0-.494-.05c-.123 0-.26.01-.41.033-.151.022-.294.064-.428.125a.946.946 0 0 0-.335.252.616.616 0 0 0-.134.41M58.027 43.25h.1l1.24-6.606h2.31l-1.875 8.583h-3.216l-1.138-4.962h-.168l-1.139 4.962h-3.215l-1.875-8.583h2.31l1.24 6.605h.1l1.524-6.605h2.278zM63.603 42.646c0 .302.134.53.402.687.268.157.597.235.988.235.223 0 .458-.03.704-.092a2.11 2.11 0 0 0 .686-.31c.212-.146.388-.33.528-.554.14-.223.21-.491.21-.804h-2.412c-.268 0-.52.056-.754.167-.234.112-.352.336-.352.67zm3.517 1.509a2.4 2.4 0 0 1-1.114.896 3.695 3.695 0 0 1-1.414.294c-.47 0-.896-.062-1.282-.185a3.077 3.077 0 0 1-1.005-.528 2.4 2.4 0 0 1-.661-.821 2.42 2.42 0 0 1-.234-1.081c0-.839.281-1.498.845-1.978s1.36-.721 2.387-.721h2.478v-.403c0-.368-.145-.679-.435-.93-.29-.251-.681-.377-1.173-.377-.39 0-.714.081-.97.243-.258.162-.498.405-.721.73l-1.608-1.14c.123-.235.293-.459.511-.671.218-.213.469-.4.754-.562a4.113 4.113 0 0 1 2.018-.528c.569 0 1.083.087 1.54.26.458.173.852.413 1.181.72.33.308.58.674.754 1.099.173.425.26.888.26 1.391v5.364h-2.11v-1.072zM72.261 39.042c0 .156.059.28.176.368.117.09.276.174.477.252.268.1.592.19.972.268.379.078.764.179 1.155.302.704.224 1.267.553 1.692.989.424.436.636.983.636 1.643 0 .793-.293 1.428-.88 1.903-.585.474-1.47.712-2.653.712a4.88 4.88 0 0 1-2.454-.637 3.61 3.61 0 0 1-.846-.662 2.637 2.637 0 0 1-.519-.78l1.775-.838c.09.168.21.319.36.453.151.134.319.251.503.352.184.1.374.176.57.226.194.05.381.075.56.075.558 0 .946-.084 1.164-.251.218-.168.327-.352.327-.553a.545.545 0 0 0-.193-.444c-.128-.107-.343-.199-.645-.277-.38-.09-.82-.207-1.323-.352a13.505 13.505 0 0 1-1.44-.503 3.272 3.272 0 0 1-1.105-.771c-.302-.324-.452-.766-.452-1.325 0-.502.1-.93.301-1.282.201-.352.466-.64.795-.863.33-.224.707-.386 1.131-.486.424-.1.86-.151 1.306-.151.424 0 .846.058 1.265.176.418.117.795.293 1.13.528.335.235.606.53.812.888.207.358.31.771.31 1.24h-2.144a.858.858 0 0 0-.133-.485.97.97 0 0 0-.352-.319 1.677 1.677 0 0 0-.477-.167 2.604 2.604 0 0 0-.494-.05c-.124 0-.26.01-.41.033a1.59 1.59 0 0 0-.428.126.945.945 0 0 0-.335.25.616.616 0 0 0-.134.412"/>
    </g>
</svg>
