<svg xmlns="http://www.w3.org/2000/svg" width="24" height="24" viewBox="0 0 24 24">
    <path fill="#AEA8B3" fill-rule="nonzero" d="M20.944 11c-.029-.252-.324-.442-.579-.442a2 2 0 0 1-1.864-1.234 2.005 2.005 0 0 1 .504-2.225.5.5 0 0 0 .054-.679 8.906 8.906 0 0 0-1.425-1.44.5.5 0 0 0-.684.055c-.537.595-1.5.815-2.245.505a2 2 0 0 1-1.216-1.954.5.5 0 0 0-.442-.526 8.986 8.986 0 0 0-2.024-.005.5.5 0 0 0-.446.515 2.003 2.003 0 0 1-1.232 1.92c-.736.3-1.693.081-2.228-.507a.502.502 0 0 0-.68-.058 8.94 8.94 0 0 0-1.456 1.44.5.5 0 0 0 .054.684c.627.567.829 1.47.503 2.246-.31.74-1.078 1.216-1.958 1.216a.49.49 0 0 0-.52.442A9.016 9.016 0 0 0 3.056 13c.029.254.333.442.59.442.784-.02 1.537.466 1.852 1.234a2.001 2.001 0 0 1-.503 2.225.5.5 0 0 0-.055.679 8.938 8.938 0 0 0 1.424 1.44.5.5 0 0 0 .685-.054c.539-.596 1.502-.816 2.244-.505a1.996 1.996 0 0 1 1.218 1.954.5.5 0 0 0 .441.525 8.946 8.946 0 0 0 2.025.006.5.5 0 0 0 .446-.516 2 2 0 0 1 1.231-1.919c.74-.303 1.694-.081 2.23.507a.503.503 0 0 0 .678.057 8.96 8.96 0 0 0 1.456-1.44.5.5 0 0 0-.053-.684 1.994 1.994 0 0 1-.505-2.245 2.015 2.015 0 0 1 1.842-1.22l.11.003a.501.501 0 0 0 .528-.441c.079-.677.08-1.365.004-2.047zm-8.93 4.021a3.005 3.005 0 0 1-3.002-3.002 3.005 3.005 0 0 1 3.002-3.002 3.005 3.005 0 0 1 3.002 3.002 3.005 3.005 0 0 1-3.002 3.002z"/>
</svg>
